<svg xmlns="http://www.w3.org/2000/svg" xmlns:xlink="http://www.w3.org/1999/xlink" width="200" height="82.066" viewBox="0 0 200 82.066"><defs><style>.a{opacity:0.86;fill:url(#a);}.b,.c,.d{fill:#fff;}.b{font-size:10px;font-family:YuGothic-Bold, Yu Gothic;font-weight:700;}.b,.d{letter-spacing:0.05em;}.d{font-size:17px;font-family:AlfaSlabOne-Regular, Alfa Slab One;}</style><linearGradient id="a" x1="0.5" x2="0.5" y2="1" gradientUnits="objectBoundingBox"><stop offset="0" stop-color="#ff1013"/><stop offset="1" stop-color="#400b0c"/></linearGradient></defs><g transform="translate(-1197.738 4.458)"><path class="a" d="M0,0H200V82.066H0Z" transform="translate(1197.738 -4.458)"/><g transform="translate(1226.452 42.896)"><text class="b" transform="translate(0 10)"><tspan x="0" y="0">SHAMGODのLINE友達追加</tspan></text></g><path class="c" d="M21.748,11.292a.708.708,0,0,1,0,1.416H19.777v1.263h1.971a.707.707,0,1,1,0,1.414h-2.68a.709.709,0,0,1-.7-.706V9.321a.71.71,0,0,1,.708-.708h2.68a.708.708,0,0,1,0,1.415H19.777v1.263h1.971ZM17.419,14.68a.707.707,0,0,1-.485.669.726.726,0,0,1-.223.035.694.694,0,0,1-.573-.281l-2.744-3.725v3.3a.706.706,0,1,1-1.412,0V9.321a.7.7,0,0,1,.483-.668.653.653,0,0,1,.218-.037.726.726,0,0,1,.556.285L16,12.641V9.321a.708.708,0,1,1,1.415,0V14.68Zm-6.448,0a.706.706,0,1,1-1.413,0V9.321a.706.706,0,1,1,1.413,0ZM8.2,15.386H5.522a.712.712,0,0,1-.708-.706V9.321a.708.708,0,0,1,1.415,0v4.651H8.2a.707.707,0,0,1,0,1.414M26.954,11.8C26.954,5.767,20.906.858,13.477.858S0,5.767,0,11.8c0,5.4,4.8,9.93,11.27,10.79.439.092,1.037.29,1.188.663a2.743,2.743,0,0,1,.043,1.213l-.184,1.146c-.051.338-.27,1.332,1.178.724s7.767-4.58,10.6-7.833a9.684,9.684,0,0,0,2.862-6.7" transform="translate(1229.884 15.418)"/><text class="d" transform="translate(1266.591 36.389)"><tspan x="0" y="0">ENTRY</tspan></text></g></svg>