<svg xmlns="http://www.w3.org/2000/svg" width="200" height="82.066" viewBox="0 0 200 82.066">
  <g id="グループ_12" data-name="グループ 12" transform="translate(-1197.738 4.458)">
    <path id="パス_1" data-name="パス 1" d="M0,0H200V82.066H0Z" transform="translate(1197.738 -4.458)" fill="#c10305" opacity="0.86"/>
    <g id="グループ_11" data-name="グループ 11" transform="translate(1226.452 42.896)">
      <text id="SHAMGODのLINE友達追加" transform="translate(0 10)" fill="#fff" font-size="10" font-family="YuGothic-Bold, Yu Gothic" font-weight="700" letter-spacing="0.05em"><tspan x="0" y="0">SHAMGODのLINE友達追加</tspan></text>
    </g>
    <path id="Icon_simple-line" data-name="Icon simple-line" d="M21.748,11.292a.708.708,0,0,1,0,1.416H19.777v1.263h1.971a.707.707,0,1,1,0,1.414h-2.68a.709.709,0,0,1-.7-.706V9.321a.71.71,0,0,1,.708-.708h2.68a.708.708,0,0,1,0,1.415H19.777v1.263h1.971ZM17.419,14.68a.707.707,0,0,1-.485.669.726.726,0,0,1-.223.035.694.694,0,0,1-.573-.281l-2.744-3.725v3.3a.706.706,0,1,1-1.412,0V9.321a.7.7,0,0,1,.483-.668.653.653,0,0,1,.218-.037.726.726,0,0,1,.556.285L16,12.641V9.321a.708.708,0,1,1,1.415,0V14.68Zm-6.448,0a.706.706,0,1,1-1.413,0V9.321a.706.706,0,1,1,1.413,0ZM8.2,15.386H5.522a.712.712,0,0,1-.708-.706V9.321a.708.708,0,0,1,1.415,0v4.651H8.2a.707.707,0,0,1,0,1.414M26.954,11.8C26.954,5.767,20.906.858,13.477.858S0,5.767,0,11.8c0,5.4,4.8,9.93,11.27,10.79.439.092,1.037.29,1.188.663a2.743,2.743,0,0,1,.043,1.213l-.184,1.146c-.051.338-.27,1.332,1.178.724s7.767-4.58,10.6-7.833a9.684,9.684,0,0,0,2.862-6.7" transform="translate(1229.884 15.418)" fill="#fff"/>
    <text id="ENTRY" transform="translate(1266.591 36.389)" fill="#fff" font-size="17" font-family="AlfaSlabOne-Regular, Alfa Slab One" letter-spacing="0.05em"><tspan x="0" y="0">ENTRY</tspan></text>
  </g>
</svg>
