<svg xmlns="http://www.w3.org/2000/svg" width="265.789" height="84.711" viewBox="0 0 265.789 84.711">
  <g id="グループ_6" data-name="グループ 6" transform="translate(-1197.738 4.457)">
    <path id="パス_1" data-name="パス 1" d="M0,0H265.789V84.711H0Z" transform="translate(1197.738 -4.458)" fill="#c10305" opacity="0.86"/>
    <g id="グループ_11" data-name="グループ 11" transform="translate(1174.385 11.822)">
      <text id="SHAMGODのLINE友達追加" transform="translate(114.204 45.5)" fill="#fff" font-size="10" font-family="YuGothic-Bold, Yu Gothic" font-weight="700" letter-spacing="0.05em"><tspan x="0" y="0">SHAMGODのLINE友達追加</tspan></text>
    </g>
    <path id="Icon_simple-line" data-name="Icon simple-line" d="M35.825,18.046a1.166,1.166,0,0,1,0,2.333H32.579V22.46h3.247a1.165,1.165,0,1,1,0,2.329H31.411a1.167,1.167,0,0,1-1.16-1.164V14.8a1.169,1.169,0,0,1,1.166-1.166h4.414a1.166,1.166,0,0,1-.006,2.331H32.579v2.081Zm-7.132,5.58a1.164,1.164,0,0,1-.8,1.1,1.2,1.2,0,0,1-.368.057,1.144,1.144,0,0,1-.944-.463l-4.52-6.136v5.439a1.163,1.163,0,1,1-2.325,0V14.8a1.159,1.159,0,0,1,.8-1.1,1.076,1.076,0,0,1,.359-.061,1.2,1.2,0,0,1,.916.47l4.555,6.161V14.8a1.166,1.166,0,1,1,2.331,0v8.826Zm-10.621,0a1.164,1.164,0,1,1-2.327,0V14.8a1.164,1.164,0,1,1,2.327,0ZM13.511,24.79H9.1a1.172,1.172,0,0,1-1.166-1.164V14.8a1.166,1.166,0,0,1,2.331,0V22.46h3.249a1.165,1.165,0,0,1,0,2.329M44.4,18.881C44.4,8.944,34.438.858,22.2.858S0,8.944,0,18.881c0,8.9,7.9,16.358,18.565,17.775.723.152,1.708.477,1.957,1.091a4.519,4.519,0,0,1,.07,2l-.3,1.887c-.083.557-.444,2.194,1.941,1.193s12.795-7.544,17.457-12.9c3.189-3.495,4.714-7.074,4.714-11.041" transform="translate(1218.089 16.179)" fill="#fff"/>
    <text id="LINE_ENTRY" data-name="LINE ENTRY" transform="translate(1274.088 39.482)" fill="#fff" font-size="22" font-family="AlfaSlabOne-Regular, Alfa Slab One" letter-spacing="0.05em"><tspan x="0" y="0">LINE ENTRY</tspan></text>
  </g>
</svg>
